<svg xmlns="http://www.w3.org/2000/svg" width="80" height="80">
    <path style="stroke:none;fill-rule:nonzero;fill:#F9E600;fill-opacity:1" d="M40 73.332C21.633 73.332 6.668 58.367 6.668 40S21.633 6.668 40 6.668s33.332 13.465 33.332 30c0 11.031-8.965 20-20 20h-5.898a1.65 1.65 0 0 0-1.668 1.664c0 .402.168.77.433 1.102C47.566 61 48.332 62.964 48.332 65A8.332 8.332 0 0 1 40 73.332Zm0-60c-14.7 0-26.668 11.969-26.668 26.668 0 14.7 11.969 26.668 26.668 26.668.934 0 1.668-.734 1.668-1.668 0-.535-.27-.934-.469-1.168a8.267 8.267 0 0 1-2.097-5.5A8.335 8.335 0 0 1 47.434 50h5.898c7.367 0 13.336-5.965 13.336-13.332 0-12.867-11.969-23.336-26.668-23.336Zm0 0"/>
    <path style="stroke:none;fill-rule:nonzero;fill:#F9E600;fill-opacity:1" d="M26.668 38.332a5 5 0 1 1-10 0 5 5 0 0 1 10 0ZM36.668 25a5 5 0 1 1-10 0 5 5 0 0 1 10 0ZM53.332 25a5 5 0 1 1-10 0 5 5 0 0 1 10 0ZM63.332 38.332a5 5 0 1 1-10 0 5 5 0 0 1 10 0Zm0 0"/>
</svg>
