<svg xmlns="http://www.w3.org/2000/svg" width="40" height="40">
    <path style="stroke:none;fill-rule:nonzero;fill:#000;fill-opacity:1" d="M20 36.668c-9.184 0-16.668-7.484-16.668-16.668S10.816 3.332 20 3.332s16.668 6.734 16.668 15c0 5.52-4.484 10-10 10h-2.953a.826.826 0 0 0-.832.836c0 .2.082.383.219.547a4.248 4.248 0 0 1 1.066 2.785A4.17 4.17 0 0 1 20 36.668Zm0-30c-7.352 0-13.332 5.98-13.332 13.332S12.648 33.332 20 33.332a.825.825 0 0 0 .832-.832.913.913 0 0 0-.23-.582 4.143 4.143 0 0 1-1.051-2.75c0-2.3 1.867-4.168 4.164-4.168h2.953a6.663 6.663 0 0 0 6.664-6.668c0-6.434-5.98-11.664-13.332-11.664Zm0 0"/>
    <path style="stroke:none;fill-rule:nonzero;fill:#000;fill-opacity:1" d="M13.332 19.168a2.5 2.5 0 1 1-5 0 2.5 2.5 0 0 1 5 0ZM18.332 12.5a2.5 2.5 0 1 1-5 0 2.5 2.5 0 0 1 5 0ZM26.668 12.5a2.5 2.5 0 1 1-5 0 2.5 2.5 0 0 1 5 0ZM31.668 19.168a2.5 2.5 0 1 1-5 0 2.5 2.5 0 0 1 5 0Zm0 0"/>
</svg>
