<svg xmlns="http://www.w3.org/2000/svg" width="5" height="5">
    <path style="stroke:none;fill-rule:nonzero;fill:#000;fill-opacity:1" d="M1.668.625c-.574 0-1.043.469-1.043 1.043v1.664c0 .574.469 1.043 1.043 1.043h1.664c.574 0 1.043-.469 1.043-1.043V1.668c0-.574-.469-1.043-1.043-1.043Zm0 .418h1.664c.348 0 .625.277.625.625v1.664a.622.622 0 0 1-.625.625H1.668a.622.622 0 0 1-.625-.625V1.668c0-.348.277-.625.625-.625Zm1.875.207a.21.21 0 1 0-.003.418.21.21 0 0 0 .003-.418ZM2.5 1.457c-.574 0-1.043.469-1.043 1.043S1.926 3.543 2.5 3.543 3.543 3.074 3.543 2.5 3.074 1.457 2.5 1.457Zm0 .418c.344 0 .625.281.625.625a.627.627 0 0 1-.625.625.627.627 0 0 1-.625-.625c0-.344.281-.625.625-.625Zm0 0"/>
</svg>
