<svg xmlns="http://www.w3.org/2000/svg" width="25" height="25">
    <path style="stroke:none;fill-rule:nonzero;fill:#fff;fill-opacity:1" d="M8.332 3.125a5.213 5.213 0 0 0-5.207 5.207v8.336a5.213 5.213 0 0 0 5.207 5.207h8.336a5.213 5.213 0 0 0 5.207-5.207V8.332a5.213 5.213 0 0 0-5.207-5.207Zm0 2.082h8.336a3.13 3.13 0 0 1 3.125 3.125v8.336a3.13 3.13 0 0 1-3.125 3.125H8.332a3.13 3.13 0 0 1-3.125-3.125V8.332a3.13 3.13 0 0 1 3.125-3.125Zm9.375 1.043a1.04 1.04 0 0 0-1.039 1.043c0 .574.465 1.039 1.039 1.039a1.04 1.04 0 1 0 0-2.082ZM12.5 7.293A5.213 5.213 0 0 0 7.293 12.5a5.213 5.213 0 0 0 5.207 5.207 5.213 5.213 0 0 0 5.207-5.207A5.213 5.213 0 0 0 12.5 7.293Zm0 2.082a3.13 3.13 0 0 1 3.125 3.125 3.13 3.13 0 0 1-3.125 3.125A3.13 3.13 0 0 1 9.375 12.5 3.13 3.13 0 0 1 12.5 9.375Zm0 0"/>
</svg>
