<svg xmlns="http://www.w3.org/2000/svg" width="15" height="15">
    <path style="stroke:none;fill-rule:nonzero;fill:#000;fill-opacity:1" d="M5 1.875A3.13 3.13 0 0 0 1.875 5v5A3.13 3.13 0 0 0 5 13.125h5A3.13 3.13 0 0 0 13.125 10V5A3.13 3.13 0 0 0 10 1.875Zm0 1.25h5c1.035 0 1.875.84 1.875 1.875v5c0 1.035-.84 1.875-1.875 1.875H5A1.875 1.875 0 0 1 3.125 10V5c0-1.035.84-1.875 1.875-1.875Zm5.625.625a.627.627 0 0 0-.625.625c0 .344.281.625.625.625a.627.627 0 0 0 .625-.625.627.627 0 0 0-.625-.625ZM7.5 4.375A3.13 3.13 0 0 0 4.375 7.5 3.13 3.13 0 0 0 7.5 10.625 3.13 3.13 0 0 0 10.625 7.5 3.13 3.13 0 0 0 7.5 4.375Zm0 1.25a1.875 1.875 0 1 1-.001 3.751A1.875 1.875 0 0 1 7.5 5.625Zm0 0"/>
</svg>
