<svg xmlns="http://www.w3.org/2000/svg" width="25" height="25">
    <path style="stroke:none;fill-rule:nonzero;fill:#fff;fill-opacity:1" d="M6.754 3.125c-1.14 0-2.066.922-2.066 2.063 0 1.14.925 2.085 2.062 2.085 1.14 0 2.066-.945 2.066-2.085a2.066 2.066 0 0 0-2.062-2.063Zm10.07 5.469c-1.734 0-2.726.906-3.199 1.808h-.05V8.836h-3.419v11.476h3.559v-5.68c0-1.495.113-2.944 1.965-2.944 1.828 0 1.855 1.707 1.855 3.039v5.585h3.559v-6.304c0-3.082-.664-5.414-4.27-5.414Zm-11.851.242v11.476h3.562V8.836Zm0 0"/>
</svg>
