<svg xmlns="http://www.w3.org/2000/svg" width="35" height="35">
    <path style="stroke:none;fill-rule:evenodd;fill:#fff;fill-opacity:1" d="M5.469 25.156c0-.605.488-1.093 1.093-1.093h21.875c.606 0 1.094.488 1.094 1.093 0 .606-.488 1.094-1.093 1.094H6.563a1.092 1.092 0 0 1-1.094-1.094Zm0-8.75c0-.605.488-1.093 1.093-1.093h21.875c.606 0 1.094.488 1.094 1.093 0 .606-.488 1.094-1.093 1.094H6.563a1.092 1.092 0 0 1-1.094-1.094Zm0-8.75c0-.605.488-1.093 1.093-1.093h21.875c.606 0 1.094.488 1.094 1.093 0 .606-.488 1.094-1.093 1.094H6.563a1.092 1.092 0 0 1-1.094-1.094Zm0 0"/>
</svg>
