<svg xmlns="http://www.w3.org/2000/svg" width="40" height="40">
    <path style="stroke:none;fill-rule:nonzero;fill:#F9E600;fill-opacity:1" d="M20 3.332A11.661 11.661 0 0 0 8.332 15C8.332 23.75 20 36.668 20 36.668S31.668 23.75 31.668 15c0-6.45-5.219-11.668-11.668-11.668ZM11.668 15a8.332 8.332 0 0 1 16.664 0c0 4.8-4.797 11.984-8.332 16.465-3.465-4.45-8.332-11.715-8.332-16.465Zm0 0"/>
    <path style="stroke:none;fill-rule:nonzero;fill:#F9E600;fill-opacity:1" d="M24.168 15A4.17 4.17 0 0 1 20 19.168 4.17 4.17 0 0 1 15.832 15 4.17 4.17 0 0 1 20 10.832 4.17 4.17 0 0 1 24.168 15Zm0 0"/>
</svg>
