<svg xmlns="http://www.w3.org/2000/svg" width="40" height="40">
    <path style="stroke:none;fill-rule:evenodd;fill:#000;fill-opacity:1" d="M2.633 1.824c-.617.278-1 .91-.95 1.586.012.195 1.352 5.828 2.97 12.52 2.449 10.117 2.976 12.215 3.132 12.465.375.613.277.582 5.598 1.644 2.629.527 4.851.973 4.93.996.132.027.14.05.074.238-.094.278-.035.782.133 1.133.101.207.953 1.102 2.863 3.004 2.531 2.524 2.742 2.715 3.074 2.824.434.141.875.11 1.281-.09.215-.101 1.965-1.812 6.336-6.19 5.746-5.759 6.051-6.071 6.16-6.411.141-.434.11-.875-.086-1.281-.101-.207-.957-1.102-2.863-3.004-2.433-2.422-2.754-2.719-3.047-2.817-.37-.12-.75-.14-.996-.043-.137.051-.176.04-.203-.05-.328-1.618-.656-3.23-.977-4.848-.515-2.602-.984-4.836-1.039-4.965a1.519 1.519 0 0 0-.785-.84c-.183-.082-3.652-.953-7.703-1.93L10.7 3.396c-1.355-.329-3.289-.793-4.3-1.032-1.008-.242-2.051-.5-2.317-.566-.644-.172-1.039-.164-1.45.027m15.255 6.739c4.468 1.078 8.14 1.976 8.16 1.996.02.02.512 2.402 1.09 5.289l1.054 5.254-3.546 3.543-3.543 3.546-5.254-1.054c-2.887-.578-5.27-1.07-5.29-1.09-.019-.02-.917-3.692-1.995-8.16l-2.09-8.649-.13-.527 7.477 7.476-.14.356c-.25.64-.305.945-.309 1.758-.008 1.117.211 1.87.793 2.765a4.993 4.993 0 0 0 5.852 1.965c1.53-.535 2.777-1.926 3.191-3.566.121-.473.121-1.79 0-2.262-.637-2.5-2.973-4.137-5.457-3.824a5.355 5.355 0 0 0-.984.223c-.164.058-.332.117-.5.171-.063.02-1.434-1.304-3.828-3.699L8.71 6.344l.527.129 8.649 2.09m1.011 8.214c.618.211 1.102.895 1.102 1.555 0 .879-.79 1.668-1.668 1.668a1.72 1.72 0 0 1-1.566-1.133 1.651 1.651 0 0 1 2.132-2.09M33 23.7 34.3 25l-4.652 4.648L25 34.301l-2.633-2.633L27 27.035a435.342 435.342 0 0 1 4.668-4.637c.02 0 .617.586 1.332 1.301"/>
</svg>
