<svg xmlns="http://www.w3.org/2000/svg" width="60" height="60">
    <path style="stroke:none;fill-rule:evenodd;fill:#F9E600;fill-opacity:1" d="M3.95 2.734a2.425 2.425 0 0 0-1.427 2.38c.024.296 2.028 8.745 4.457 18.78 3.672 15.176 4.461 18.32 4.696 18.7.566.918.418.87 8.398 2.465 3.946.793 7.278 1.46 7.395 1.492.199.043.207.078.113.355-.145.418-.059 1.172.2 1.703.148.313 1.429 1.653 4.292 4.504 3.797 3.785 4.114 4.075 4.61 4.239a2.551 2.551 0 0 0 1.925-.133c.317-.153 2.942-2.719 9.504-9.293 8.621-8.63 9.07-9.102 9.239-9.61a2.551 2.551 0 0 0-.133-1.925c-.149-.313-1.43-1.653-4.293-4.504-3.645-3.633-4.13-4.078-4.567-4.223-.558-.184-1.125-.21-1.496-.07-.203.078-.261.062-.304-.074a1139.35 1139.35 0 0 1-1.465-7.27c-.778-3.906-1.48-7.254-1.555-7.445a2.298 2.298 0 0 0-1.18-1.258c-.28-.129-5.48-1.434-11.558-2.899L16.05 5.094c-2.035-.492-4.938-1.192-6.45-1.551a261.627 261.627 0 0 1-3.476-.852c-.969-.253-1.559-.242-2.176.043m22.883 10.11c6.7 1.617 12.207 2.965 12.242 2.992.028.035.766 3.605 1.633 7.937l1.582 7.875L31.65 42.29l-7.876-1.582c-4.332-.867-7.902-1.605-7.937-1.633-.027-.035-1.375-5.543-2.992-12.242L9.71 13.859l-.195-.793L20.73 24.281l-.21.535c-.38.957-.457 1.418-.465 2.633-.008 1.68.316 2.809 1.191 4.149a7.488 7.488 0 0 0 8.777 2.949c2.301-.8 4.165-2.887 4.786-5.348.18-.71.18-2.687 0-3.39-.954-3.75-4.457-6.207-8.184-5.739-.5.063-.996.176-1.477.328-.246.094-.496.18-.75.266-.097.027-2.148-1.96-5.742-5.555l-5.59-5.593.793.195 12.973 3.133m1.52 12.32C29.273 25.48 30 26.512 30 27.5c0 1.316-1.184 2.5-2.5 2.5a2.577 2.577 0 0 1-2.352-1.7 2.47 2.47 0 0 1 .606-2.581 2.474 2.474 0 0 1 2.598-.555M49.5 35.551l1.95 1.949-6.973 6.977-6.977 6.972-1.977-1.972-1.972-1.977 6.949-6.95a652.312 652.312 0 0 1 7-6.948c.031 0 .93.875 2 1.949"/>
</svg>
