<svg xmlns="http://www.w3.org/2000/svg" width="40" height="40">
    <path style="stroke:none;fill-rule:evenodd;fill:#F9E600;fill-opacity:1" d="M24.566.082a1.773 1.773 0 0 0-.933.793 1.67 1.67 0 0 0-.078 1.418c.187.46.57.812 1.047.957.125.04.398.09.597.113 1.223.145 2.828.637 4.102 1.262a13.078 13.078 0 0 1 6.129 6.184c.617 1.289.976 2.453 1.203 3.918.117.761.242 1.066.578 1.386.305.293.644.422 1.121.422s.816-.129 1.125-.422c.504-.484.61-.96.445-2.02a16.633 16.633 0 0 0-4.699-9.296c-2.52-2.52-5.7-4.129-9.27-4.695-.726-.118-1.081-.122-1.367-.02M5.832 1.773A5.048 5.048 0 0 0 1.93 5.832c-.25 1.438.46 5.383 1.566 8.668 2.242 6.676 6.508 12.625 12.027 16.766a36.265 36.265 0 0 0 9.465 5.113c2.977 1.062 6.965 1.89 8.645 1.8 1.824-.097 3.39-1.144 4.199-2.812.469-.972.469-.957.469-4.699 0-3.781.004-3.73-.504-4.773a4.956 4.956 0 0 0-2.86-2.504 12.53 12.53 0 0 0-1.367-.297c-1.3-.219-2.078-.414-3.468-.875-1.075-.356-1.18-.375-1.946-.403-.965-.039-1.558.07-2.281.418-.719.344-1.031.578-1.887 1.418l-.777.762-.688-.469a25.55 25.55 0 0 1-6.539-6.566l-.394-.59.758-.777c.843-.864 1.086-1.188 1.422-1.899.335-.707.449-1.316.414-2.281-.028-.754-.047-.86-.403-1.934-.46-1.39-.656-2.168-.875-3.468a12.53 12.53 0 0 0-.297-1.367 4.956 4.956 0 0 0-2.504-2.86c-1.023-.5-.957-.492-4.57-.512-2.7-.015-3.312 0-3.703.082m6.8 3.403c.618.336.794.676 1.009 1.945.207 1.234.543 2.57.925 3.703.332.973.38 1.438.196 1.883-.07.168-.57.723-1.43 1.594-1.258 1.273-1.324 1.355-1.434 1.734-.207.707-.011 1.195 1.188 3a28.385 28.385 0 0 0 7.715 7.762c1.96 1.32 2.437 1.52 3.164 1.305.379-.11.46-.176 1.738-1.442.82-.812 1.434-1.363 1.582-1.426.434-.18.922-.129 1.89.2 1.134.382 2.47.718 3.704.925 1.273.215 1.621.403 1.96 1.04.118.214.13.453.15 3.117.011 1.894-.009 2.972-.055 3.148-.172.645-.887 1.203-1.543 1.203-.414 0-1.602-.164-2.692-.375-8.14-1.57-15.531-6.41-20.097-13.16-2.196-3.25-3.633-6.379-4.563-9.934-.422-1.617-.836-3.968-.836-4.77-.004-.425.266-.976.606-1.245.476-.38.5-.383 3.656-.363 2.832.015 2.91.015 3.168.156M24.566 6.75a1.648 1.648 0 0 0-1.125 1.582c0 .355.036.5.192.793.254.465.617.707 1.316.883 2.543.629 4.36 2.426 5.02 4.957.207.797.43 1.137.906 1.402.453.246.992.266 1.46.059a1.64 1.64 0 0 0 .942-1.117c.22-.817-.523-2.934-1.566-4.477-.527-.777-1.766-2.016-2.543-2.543-1.64-1.11-3.793-1.828-4.602-1.539"/>
</svg>
