<svg xmlns="http://www.w3.org/2000/svg" width="25" height="25">
    <path style="stroke:none;fill-rule:nonzero;fill:#fff;fill-opacity:1" d="M21.875 6.688a7.622 7.622 0 0 1-2.21.601 3.82 3.82 0 0 0 1.69-2.125 7.856 7.856 0 0 1-2.44.934 3.857 3.857 0 0 0-2.81-1.22 3.853 3.853 0 0 0-3.746 4.727 10.918 10.918 0 0 1-7.93-4.02A3.818 3.818 0 0 0 3.91 7.52c0 1.332.676 2.511 1.711 3.203a3.86 3.86 0 0 1-1.742-.485v.051a3.844 3.844 0 0 0 3.086 3.77 3.794 3.794 0 0 1-1.738.066 3.855 3.855 0 0 0 3.593 2.676 7.722 7.722 0 0 1-5.695 1.59 10.866 10.866 0 0 0 5.895 1.73c7.078 0 10.949-5.863 10.949-10.95 0-.163-.008-.331-.012-.495a7.865 7.865 0 0 0 1.918-1.989Zm0 0"/>
</svg>
