<svg xmlns="http://www.w3.org/2000/svg" width="5" height="5">
    <path style="stroke:none;fill-rule:nonzero;fill:#000;fill-opacity:1" d="M4.375 1.336a1.396 1.396 0 0 1-.441.121.746.746 0 0 0 .336-.426 1.51 1.51 0 0 1-.489.188.77.77 0 0 0-1.308.703 2.181 2.181 0 0 1-1.586-.805.765.765 0 0 0 .238 1.028.735.735 0 0 1-.348-.098v.012c0 .37.262.683.618.753a.878.878 0 0 1-.204.028.586.586 0 0 1-.144-.016.766.766 0 0 0 .719.535 1.55 1.55 0 0 1-.957.329c-.063 0-.125-.004-.184-.008.34.218.746.343 1.18.343 1.414 0 2.187-1.171 2.187-2.187v-.102c.149-.109.281-.242.383-.398Zm0 0"/>
</svg>
